<svg height="512" viewBox="0 0 58 56" width="512" xmlns="http://www.w3.org/2000/svg"><g id="028---Golfing-Green" fill="none"><path id="Shape" d="m58 25v4.79c0 4.66-6.87 3.69-8.3 7.12-.33-1.75-2.7-5.37-1.7-6.91 1.92-3.09 10-.58 10-5z" fill="#a59078"/><path id="Shape" d="m50 40v6.07c-.1508647 2.2918502-1.3169676 4.3967026-3.18 5.74-7.48 5.41-18.95 6.19-25.45-1.35-2.798376-3.177748-6.6046277-5.2962555-10.78-6-3.16-.62-10.59-1.23-10.59-4.32v-4.74c.06 1.17 1.33-.83 2.48-.4 2.6 1 5.39 1.23 8.11 1.73 4.1759199.7021835 7.9826622 2.820964 10.78 6 6.5 7.57 18 6.76 25.45 1.33 1.85-1.33 2.82.37 3.1-3 0-.37 0-.74 0-1.11z" fill="#a59078"/><path id="Shape" d="m58 25c0 4.45-6.19 3.68-8.11 6.77-1 1.54-.52 3.42-.2 5.14.72 3.75.24 7.88-2.87 10.11-7.48 5.43-18.95 6.24-25.45-1.33-2.7973378-3.179036-6.6040801-5.2978165-10.78-6-3.22-.69-10.43-1.23-10.59-4.29-.00380549-.4194619.11809817-.8304513.35-1.18 2.27-3.63 7.56-2.83 11.14-3.14 12.69-1.08 14.12-.64 27.22-7.08 2.42-1.19 6.89-2.1 14.29-3.91 2.84.28 5 1.91 5 4.91z" fill="#71c285"/><path id="Shape" d="m37 43.5c-3.3 1.23-8 0-8-2s4.62-3.26 8-2c2.67 1.01 2.66 2.99 0 4z" fill="#4c8056"/><path id="Shape" d="m10 13.43c0 5.57-2.24 10.15-5 10.15s-5-4.1-5-9.71 3.33-4.42 2.22-13.25c-.22-2.19 7.78 3.53 7.78 12.81z" fill="#26b99a"/><path id="Shape" d="m5 29c-.55228475 0-1-.4477153-1-1v-10.6c0-.5522847.44771525-1 1-1s1 .4477153 1 1v10.6c0 .5522847-.44771525 1-1 1z" fill="#a56a43"/><path id="Shape" d="m18 12.8c0 5.08-1.79 9.2-4 9.2s-4-3.72-4-8.8 2.67-4 1.78-12c-.22-1.98 6.22 3.2 6.22 11.6z" fill="#14a085"/><path id="Shape" d="m14 27c-.5522847 0-1-.4477153-1-1v-9.6c0-.5522847.4477153-1 1-1s1 .4477153 1 1v9.6c0 .5522847-.4477153 1-1 1z" fill="#805333"/><path id="Shape" d="m26 12.45c0 4.45-1.79 8.05-4 8.05s-4-3.25-4-7.7 2.67-3.5 1.78-10.5c-.22-1.73 6.22 2.8 6.22 10.15z" fill="#33907c"/><path id="Shape" d="m22 25c-.5522847 0-1-.4477153-1-1v-8.4c0-.5522847.4477153-1 1-1s1 .4477153 1 1v8.4c0 .5522847-.4477153 1-1 1z" fill="#603e26"/><circle id="Oval" cx="22.5" cy="35.5" fill="#f5efca" r="2.5"/><path id="Shape" d="m39 14.27c4.39-4.13 8.78 3.39 13.16.65.1658209-.1107943.3792078-.1211756.5550005-.0270009s.2853695.2775722.2849995.4770009c0 8.45.08 8-.18 8.22-4.61 4-9.21-4.5-13.82-.17l-2-5.42z" fill="#e64c3c"/><path id="Shape" d="m39 14.69v26.81c0 .82-.79 1.54-2 2v-28.81c0-.5522847.4477153-1 1-1s1 .4477153 1 1z" fill="#ecf0f1"/><g fill="#c03a2b"><path id="Rectangle-path" d="m37 32.37h2v6h-2z"/><path id="Rectangle-path" d="m37 20.37h2v6h-2z"/></g></g></svg>