<svg id="_x33_0" enable-background="new 0 0 64 64" height="512" viewBox="0 0 64 64" width="512" xmlns="http://www.w3.org/2000/svg"><g><g><g><path d="m39.62 6-7.62 9-7.62-9z" fill="#ccd1d9"/></g><g><path d="m43 2-3.38 4h-15.24l-3.38-4z" fill="#8cc152"/></g><g><path d="m14 26h36v12h-36z" fill="#e6e9ed"/></g><g><path d="m50 38v24h-36v-24h22v4c0 1.1.9 2 2 2h6c1.1 0 2-.9 2-2v-4z" fill="#b4dd7f"/></g><g><path d="m14 26v2c-6.41 0-10.25-1.28-11.53-1.79l.97-7.74c.18-1.45.6-2.85 1.23-4.14.64-1.29 1.49-2.49 2.52-3.52 1.83-1.83 4.17-3.08 6.71-3.59l6.1-1.22 4 13 1.17-1.17c1.33-1.33 3.02-2.24 4.83-2.62v10.79z" fill="#b4dd7f"/></g><g><path d="m50 26h-16v-10.79c.58.13 1.15.3 1.7.53 1.16.48 2.22 1.18 3.13 2.09l1.17 1.17 4-13 6.1 1.22c2.54.51 4.88 1.76 6.71 3.59 1.03 1.03 1.88 2.23 2.52 3.52.63 1.29 1.05 2.69 1.23 4.14l.97 7.74c-1.28.51-5.12 1.79-11.53 1.79z" fill="#b4dd7f"/></g><g><path d="m34 26v1c0 .55-.45 1-1 1h-2c-.55 0-1-.45-1-1v-1-10.79c.66-.14 1.33-.21 2-.21s1.34.07 2 .21z" fill="#a0d468"/></g><g><path d="m14 28v4c-8 0-12-2-12-2l.47-3.79c1.28.51 5.12 1.79 11.53 1.79z" fill="#a0d468"/></g><g><path d="m61.53 26.21.47 3.79s-4 2-12 2v-4c6.41 0 10.25-1.28 11.53-1.79z" fill="#a0d468"/></g><g><path d="m24.38 6 7.62 9c-.67 0-1.34.07-2 .21-1.81.38-3.5 1.29-4.83 2.62l-1.17 1.17-4-13 1-4z" fill="#a0d468"/></g><g><path d="m43 2 1 4-4 13-1.17-1.17c-.91-.91-1.97-1.61-3.13-2.09-.55-.23-1.12-.4-1.7-.53-.66-.14-1.33-.21-2-.21l7.62-9z" fill="#a0d468"/></g><g><path d="m46 36v2 4c0 1.1-.9 2-2 2h-6c-1.1 0-2-.9-2-2v-4-2z" fill="#fcd770"/></g><g><path d="m46 33v3h-10v-3c0-.55.45-1 1-1h8c.55 0 1 .45 1 1z" fill="#ffc729"/></g></g><path d="m63.08 30.578-1.528-12.229c-.389-3.104-1.821-6.032-4.032-8.243-1.979-1.98-4.478-3.317-7.224-3.866l-5.479-1.096-1.036-4.144h-23.562l-1.036 4.144-5.479 1.096c-2.746.548-5.244 1.885-7.224 3.865-2.211 2.211-3.644 5.139-4.032 8.243l-1.528 12.23.633.316c.165.082 3.973 1.933 11.447 2.09v30.016h38v-30.015c7.474-.157 11.283-2.008 11.447-2.09zm-18.39-23.42 5.213 1.042c2.357.472 4.502 1.619 6.202 3.319 1.898 1.898 3.128 4.412 3.462 7.077l.868 6.944c-1.589.542-4.71 1.345-9.435 1.447v-2.746c0-.526.214-1.042.586-1.414l1.121-1.121-1.414-1.414-1.121 1.121c-.745.745-1.172 1.776-1.172 2.829v.758h-14v-8.458c1.158.427 2.223 1.095 3.121 1.993l2.347 2.347zm.31 27.842h-8v-2h8zm-8 2h8v5c0 .552-.448 1-1 1h-6c-.552 0-1-.448-1-1zm8-6h-8c-1.103 0-2 .897-2 2v4h-20v-10h14c0 1.103.897 2 2 2h2c1.103 0 2-.897 2-2h14v10h-2v-4c0-1.103-.897-2-2-2zm-13-15c.337 0 .67.025 1 .063v10.937h-2v-10.937c.33-.038.663-.063 1-.063zm-5.459-9h10.919l-5.46 6.452zm16.421-1.027-3.43 11.146c-1.532-1.531-3.449-2.539-5.533-2.933l8.504-10.05zm-2.118-2.973-1.692 2h-14.303l-1.692-2zm-19.347 1.136 8.504 10.05c-2.084.394-4.001 1.401-5.533 2.933l-3.43-11.146zm-13.602 7.384c1.7-1.7 3.845-2.848 6.202-3.319l5.213-1.042 4.223 13.724 2.347-2.347c.898-.898 1.963-1.566 3.121-1.993v8.457h-14.001v-.758c0-1.053-.427-2.084-1.172-2.828l-1.121-1.121-1.414 1.414 1.121 1.121c.372.372.586.888.586 1.414v2.746c-4.724-.102-7.846-.905-9.435-1.447l.868-6.944c.334-2.665 1.563-5.179 3.462-7.077zm-4.808 17.848.226-1.806c1.824.578 5.051 1.329 9.687 1.426v1.989c-5.263-.119-8.604-1.119-9.913-1.609zm11.913 31.632v-22h20v3c0 1.654 1.346 3 3 3h6c1.654 0 3-1.346 3-3v-3h2v22zm36-30.023v-1.989c4.636-.097 7.863-.847 9.688-1.425l.226 1.806c-1.312.49-4.652 1.489-9.914 1.608z"/></g></svg>