<svg id="Capa_1" enable-background="new 0 0 512 512" height="512" viewBox="0 0 512 512" width="512" xmlns="http://www.w3.org/2000/svg"><g><path d="m511.575 258.946c-.738 64.508-25.704 128.79-74.897 178.011-100 100.057-261.732 100.057-361.732 0-49.037-49.065-74-113.094-74.889-177.396-.073-5.281 4.192-9.601 9.471-9.601h493.184c4.94 0 8.92 4.043 8.863 8.986z" fill="#72d1fb"/><path d="m474.009 389.877c-8.646 14.059-18.775 27.464-30.389 39.987h-53.735c-5.518 0-9.991 4.476-9.991 9.997v40.027c-12.89 7.146-26.266 13.094-39.966 17.843v-57.87c0-5.521-4.473-9.997-9.991-9.997h-261.557c-11.614-12.524-21.744-25.928-30.39-39.987h22.178c5.518 0 9.991-4.476 9.991-9.997v-199.937h39.966v199.937c0 5.521 4.473 9.997 9.991 9.997z" fill="#b4e7fd"/><path d="m511.75 259.918h-511.5c-1.017-66.796 23.945-133.915 74.886-184.883 99.888-99.943 261.839-99.943 361.728 0 50.941 50.968 75.903 118.087 74.886 184.883z" fill="#35e298"/><path d="m419.859 354.888c0 8.282-13.42 14.995-29.974 14.995s-29.974-6.714-29.974-14.995c0-8.282 13.42-14.995 29.974-14.995s29.974 6.714 29.974 14.995zm-189.837 114.964c-16.554 0-29.974 6.714-29.974 14.995 0 8.282 13.42 14.995 29.974 14.995s29.974-6.714 29.974-14.995c.001-8.281-13.419-14.995-29.974-14.995zm-109.905-159.95c-16.554 0-29.974 6.714-29.974 14.995 0 8.282 13.42 14.995 29.974 14.995s29.974-6.714 29.974-14.995-13.42-14.995-29.974-14.995z" fill="#0691ce"/><path d="m460.636 258.39c-22.75 16.659-41.274 38.426-53.295 63.94l-13.057 27.713c-3.011 6.391-12.097 6.391-15.108 0l-12.696-26.946c-11.977-25.422-29.958-47.663-52.77-64.063-31.642-22.749-52.25-59.893-52.251-101.853-.001-69.157 57.185-125.893 126.302-125.335 68.711.554 124.239 56.456 124.239 125.333 0 41.568-20.224 78.409-51.364 101.211z" fill="#ffcd71"/><path d="m409.479 317.536c-.811 1.583-1.598 3.181-2.358 4.794l-13.057 27.713c-3.011 6.391-12.097 6.391-15.108 0l-12.696-26.946c-11.977-25.422-29.958-47.663-52.77-64.063-31.642-22.749-52.25-59.893-52.251-101.853.001-69.157 57.187-125.894 126.303-125.336 7.532.061 14.906.787 22.066 2.122-57.921 10.883-102.408 62.217-102.407 123.214 0 41.96 20.609 79.104 52.251 101.853 21.131 15.193 38.118 35.399 50.027 58.502z" fill="#ffb52d"/><path d="m386.73 60.251c53.503 0 96.875 43.396 96.875 96.928s-43.373 96.928-96.875 96.928-96.875-43.396-96.875-96.928 43.372-96.928 96.875-96.928z" fill="#f76937"/><path d="m386.73 72.785c46.584 0 84.348 37.785 84.348 84.394s-37.764 84.394-84.348 84.394-84.348-37.785-84.348-84.394 37.764-84.394 84.348-84.394z" fill="#fff5f5"/><path d="m349.087 206.405h-5.136c-8.284 0-15-6.716-15-15v-63.746c0-8.284 6.716-15 15-15h5.136c8.284 0 15 6.716 15 15v63.746c0 8.284-6.716 15-15 15z" fill="#ffb52d"/><path d="m431.07 206.405h-84.551v-93.746h84.551c8.284 0 15 6.716 15 15v63.746c0 8.284-6.716 15-15 15z" fill="#ffc14f"/><path d="m412.026 108.753v19.53c0 2.76-2.237 4.998-4.996 4.998s-4.996-2.238-4.996-4.998v-19.53c0-8.013-6.515-14.532-14.524-14.532s-14.524 6.519-14.524 14.532v19.53c0 2.76-2.237 4.998-4.996 4.998s-4.996-2.238-4.996-4.998v-19.53c0-13.525 10.997-24.528 24.516-24.528s24.516 11.003 24.516 24.528z" fill="#f76937"/><path d="m199.176 226.549c-22.75 16.659-41.274 38.426-53.295 63.94l-13.057 27.713c-3.011 6.391-12.097 6.391-15.108 0l-12.696-26.946c-11.977-25.422-29.958-47.663-52.77-64.063-31.641-22.749-52.25-59.893-52.25-101.854-.001-69.157 57.185-125.893 126.302-125.335 68.71.555 124.238 56.456 124.238 125.334 0 41.568-20.224 78.409-51.364 101.211z" fill="#8078bf"/><path d="m151.453 280.126c-1.904 3.38-3.691 6.836-5.352 10.363l-13.057 27.713c-3.011 6.391-12.097 6.391-15.108 0l-12.696-26.946c-11.977-25.422-29.958-47.663-52.77-64.063-31.641-22.749-52.25-59.893-52.25-101.854-.001-69.157 57.185-125.893 126.302-125.335 8.592.069 16.977 1.004 25.074 2.722-56.458 12.058-99.422 62.67-99.421 122.614 0 41.96 20.609 79.104 52.251 101.853 19.416 13.959 35.333 32.15 47.027 52.933z" fill="#6a61b4"/><path d="m125.27 28.41c53.503 0 96.875 43.396 96.875 96.928s-43.373 96.928-96.875 96.928-96.875-43.396-96.875-96.928 43.372-96.928 96.875-96.928z" fill="#203e76"/><path d="m125.27 40.944c46.584 0 84.348 37.785 84.348 84.394s-37.764 84.394-84.348 84.394-84.348-37.785-84.348-84.394 37.764-84.394 84.348-84.394z" fill="#fff5f5"/><path d="m186.222 82.512-6.58 26.336c-.461 1.845-2.118 3.14-4.019 3.14h-100.418c-1.901 0-3.558-1.295-4.019-3.14l-6.58-26.336c-.521-2.085.638-4.223 2.669-4.924l20.439-7.052 33.241 40.56 42.16-40.56 20.439 7.052c2.03.7 3.189 2.838 2.668 4.924z" fill="#c83c50"/><path d="m163.114 70.536v102.776c0 2.761-2.237 4.998-4.996 4.998h-65.409c-2.759 0-4.996-2.238-4.996-4.998v-102.776z" fill="#f44545"/><path d="m141.985 70.536v8.705c0 8.928-7.234 16.166-16.157 16.166-8.923 0-16.157-7.238-16.157-16.166v-8.705z" fill="#842939"/><path d="m308.691 393.28c-22.75 16.659-41.274 38.426-53.295 63.94l-13.057 27.713c-3.011 6.391-12.097 6.391-15.108 0l-12.696-26.946c-11.977-25.422-29.958-47.663-52.77-64.063-31.642-22.749-52.25-59.893-52.251-101.853-.001-69.157 57.185-125.893 126.302-125.335 68.709.555 124.238 56.456 124.238 125.334.001 41.567-20.223 78.408-51.363 101.21z" fill="#f44545"/><path d="m263.751 441.748c-3.055 4.986-5.847 10.147-8.355 15.472l-13.057 27.713c-3.011 6.391-12.097 6.391-15.108 0l-12.696-26.946c-11.977-25.422-29.958-47.663-52.77-64.063-31.642-22.749-52.25-59.893-52.251-101.853-.001-69.157 57.185-125.893 126.302-125.335 9.66.078 19.06 1.25 28.081 3.398-54.979 13.177-96.434 63.055-96.433 121.937 0 41.96 20.609 79.104 52.251 101.853 17.809 12.803 32.674 29.167 44.036 47.824z" fill="#c83c50"/><path d="m331.66 292.069c0 53.532-43.373 96.928-96.875 96.928s-96.875-43.396-96.875-96.928 43.373-96.928 96.875-96.928 96.875 43.397 96.875 96.928z" fill="#962a3a"/><path d="m319.133 292.069c0 46.61-37.764 84.394-84.348 84.394s-84.348-37.785-84.348-84.394c0-46.61 37.764-84.394 84.348-84.394s84.348 37.785 84.348 84.394z" fill="#fff5f5"/><path d="m274.633 259.414h-81.856c-3.983 0-6.858-3.814-5.764-7.646l6.578-23.034c1.069-3.742 5.361-5.491 8.738-3.56l28.402 16.239c1.843 1.054 4.106 1.054 5.949 0l28.402-16.239c3.377-1.931 7.67-.182 8.738 3.56l6.578 23.034c1.093 3.832-1.782 7.646-5.765 7.646z" fill="#d63030"/><path d="m275.839 340.918h-84.268c-5.523 0-10-4.477-10-10v-56.07c0-5.523 4.477-10 10-10h84.268c5.523 0 10 4.477 10 10v56.07c0 5.522-4.477 10-10 10z" fill="#51489a"/><path d="m282.899 281.148h-98.388c-5.523 0-10-4.477-10-10v-12.602c0-5.523 4.477-10 10-10h98.388c5.523 0 10 4.477 10 10v12.602c0 5.523-4.477 10-10 10z" fill="#5f55af"/><path d="m287.476 281.148h-73.344c-8.985 0-16.269-7.284-16.269-16.269v-.064c0-8.985 7.284-16.269 16.269-16.269h73.344c2.995 0 5.423 2.428 5.423 5.423v21.756c0 2.995-2.428 5.423-5.423 5.423z" fill="#8078bf"/><path d="m241.851 284.818v56.535c0 2.208-1.789 3.999-3.997 3.999h-8.299c-2.207 0-3.997-1.79-3.997-3.999v-56.535c0-4.501 3.647-8.15 8.146-8.15 4.5-.001 8.147 3.648 8.147 8.15z" fill="#f44545"/><path d="m241.851 244.83v43.386c0 4.501-3.647 8.15-8.146 8.15s-8.146-3.649-8.146-8.15v-43.386c0-4.501 3.647-8.15 8.146-8.15s8.146 3.649 8.146 8.15z" fill="#fb5858"/></g></svg>