<svg id="Layer_1" height="512" viewBox="0 0 55 55" width="512" xmlns="http://www.w3.org/2000/svg" data-name="Layer 1"><path d="m27.5 36.77a17 17 0 1 1 17-17 17 17 0 0 1 -17 17zm0-32.52a15.51 15.51 0 1 0 15.5 15.51 15.53 15.53 0 0 0 -15.5-15.51z"/><path d="m24.61 11.74a.71.71 0 0 1 -.53-.22.81.81 0 0 1 -.17-.24.93.93 0 0 1 -.05-.29.71.71 0 0 1 .06-.28.6.6 0 0 1 .16-.25 1 1 0 0 1 .24-.16.75.75 0 0 1 1 .69.75.75 0 0 1 -.22.53.81.81 0 0 1 -.24.17.74.74 0 0 1 -.25.05z"/><path d="m21.59 14a.93.93 0 0 1 -.29-.05.81.81 0 0 1 -.24-.17.75.75 0 0 1 -.22-.53.77.77 0 0 1 .22-.53.79.79 0 0 1 .82-.16.78.78 0 0 1 .24.16.77.77 0 0 1 .22.53.75.75 0 0 1 -.22.53.81.81 0 0 1 -.24.17 1 1 0 0 1 -.29.05z"/><path d="m27.5 9.09a.75.75 0 0 1 -.5-.22.63.63 0 0 1 -.16-.24.75.75 0 0 1 -.06-.29.72.72 0 0 1 .06-.29.74.74 0 0 1 .4-.4.75.75 0 0 1 .82.16.78.78 0 0 1 .16.24.73.73 0 0 1 0 .58.74.74 0 0 1 -.4.4.75.75 0 0 1 -.32.06z"/><path d="m23.86 8.57a.73.73 0 0 1 -.53-.22.71.71 0 0 1 -.22-.53.77.77 0 0 1 .22-.53.74.74 0 0 1 .81-.16.82.82 0 0 1 .25.16.72.72 0 0 1 .16.25.67.67 0 0 1 .06.28.72.72 0 0 1 -.06.29.78.78 0 0 1 -.16.24.85.85 0 0 1 -.25.17.87.87 0 0 1 -.28.05z"/><path d="m27.68 13.08a.75.75 0 0 1 -.53-.22.81.81 0 0 1 -.17-.24.93.93 0 0 1 -.05-.29.67.67 0 0 1 .06-.28.6.6 0 0 1 .16-.25.78.78 0 0 1 .24-.16.75.75 0 0 1 .82.16.77.77 0 0 1 .22.53.72.72 0 0 1 -.06.29.78.78 0 0 1 -.16.24.81.81 0 0 1 -.21.14.93.93 0 0 1 -.32.08z"/><path d="m21.38 17.76a.93.93 0 0 1 -.29-.05.81.81 0 0 1 -.24-.17.75.75 0 0 1 -.22-.53.77.77 0 0 1 .22-.53.75.75 0 0 1 1.06 0 .77.77 0 0 1 .22.53.75.75 0 0 1 -.22.53.81.81 0 0 1 -.24.17.93.93 0 0 1 -.29.05z"/><path d="m18.29 16.27a.75.75 0 0 1 -.53-.22.63.63 0 0 1 -.16-.24.72.72 0 0 1 -.06-.29.71.71 0 0 1 .06-.28.67.67 0 0 1 .16-.25.78.78 0 0 1 .24-.16.83.83 0 0 1 .58 0 .78.78 0 0 1 .24.16.82.82 0 0 1 .16.25.71.71 0 0 1 .06.28.73.73 0 0 1 -.22.53.75.75 0 0 1 -.53.22z"/><path d="m24.73 15.56a.75.75 0 0 1 -.75-.75.72.72 0 0 1 .06-.29.63.63 0 0 1 .16-.24.75.75 0 0 1 .82-.16.63.63 0 0 1 .24.16.78.78 0 0 1 .16.24.72.72 0 0 1 .06.29.75.75 0 0 1 -.75.75z"/><path d="m17.59 12.7a.72.72 0 0 1 -.29-.06.78.78 0 0 1 -.24-.16.73.73 0 0 1 -.22-.54.74.74 0 0 1 .22-.52.81.81 0 0 1 .24-.17.78.78 0 0 1 .82.17.74.74 0 0 1 .22.52.77.77 0 0 1 -.22.54.75.75 0 0 1 -.53.22z"/><path d="m20.59 10.35a.75.75 0 0 1 -.53-.22.78.78 0 0 1 -.16-.24.75.75 0 0 1 1-1 .56.56 0 0 1 .24.16.73.73 0 0 1 .17.82.81.81 0 0 1 -.17.24.78.78 0 0 1 -.24.16.72.72 0 0 1 -.31.08z"/><path d="m28.56 52.25h-2.49a.74.74 0 0 1 -.74-.66l-1-8.75a4.31 4.31 0 0 0 -1.18-2.47l-1.79-1.83a5.82 5.82 0 0 1 -1.66-4.15.75.75 0 0 1 .75-.74.75.75 0 0 1 .73.76 4.35 4.35 0 0 0 1.23 3.09l1.79 1.83a5.77 5.77 0 0 1 1.6 3.33l1 8.09h1.1l1-8.09a5.74 5.74 0 0 1 1.6-3.33l1.79-1.83a4.34 4.34 0 0 0 1.22-2.94.75.75 0 0 1 1.5 0 5.88 5.88 0 0 1 -1.64 4l-1.8 1.83a4.31 4.31 0 0 0 -1.18 2.47l-1 8.75a.76.76 0 0 1 -.83.64z"/></svg>